# xmcd
#
# Track frame offsets:
#	150
#	11723
#	24913
#	42233
#	54955
#	66303
#	77589
#	86694
#	100647
#	114480
#	127287
#	143829
#	152987
#	163975
#	176060
#	187297
#
# Disc length: 2664 seconds
#
# Revision: 1
# Processed by: cddbd v1.5.2PL0 Copyright (c) Steve Scherf et al.
# Submitted via: EZCDAudioConverter 6.0.5.1
#
DISCID=dd0a6610
DTITLE=Various Artist - Ring On Her Finger, Time On Her Hands
DYEAR=2004
DGENRE=Country
TTITLE0=Hank Williams - Mansion On A Hill
TTITLE1=Graham Brown - I Tell It Like It Used to Be
TTITLE2=Merle Haggard - Think I'll Just Stay Here and Drink
TTITLE3=Billie Jo Spears - His On The Run Again
TTITLE4=Kenny Rogers and The First Edition - What I'm I Gonna Do
TTITLE5=Carl Perkins - Sure To Fall
TTITLE6=Dolly Parton - Girl Left Alone
TTITLE7=Willie Nelson - Will You Remember Me
TTITLE8=Hank Locklin - Baby I Need You
TTITLE9=Jerry Lee Lewis - Fools Like Me
TTITLE10=Lee Greenwood - Ring on Her Finger, Time on Her Hands
TTITLE11=Freddy Fender - Running Back
TTITLE12=Patsy Cline - A Stranger in My Arms
TTITLE13=Johnny Cash - Next In Line
TTITLE14=Carl Belew - Little Miss Heartache
TTITLE15=Bob Wills - Faded Love
EXTD=
EXTT0=
EXTT1=
EXTT2=
EXTT3=
EXTT4=
EXTT5=
EXTT6=
EXTT7=
EXTT8=
EXTT9=
EXTT10=
EXTT11=
EXTT12=
EXTT13=
EXTT14=
EXTT15=
PLAYORDER=
